<svg xmlns="http://www.w3.org/2000/svg" width="256" height="256"><path fill="#197491" stroke="#000" stroke-miterlimit="10" stroke-width="2" d="M52.643 129.169a62.34 62.34 0 0 0-11.964 36.806c0 34.598 28.046 62.645 62.644 62.645s62.645-28.047 62.645-62.645a62.333 62.333 0 0 0-11.965-36.806H52.643z"/><path fill="#197491" stroke="#000" stroke-miterlimit="10" stroke-width="2" d="M181.868 118.198c-1.344-3.984-2.953-6.594-6.594-6.594H31.371c-3.641 0-5.457 2.89-6.594 6.594L5.754 203.187a6.596 6.596 0 0 0 6.594 6.595h181.949a6.596 6.596 0 0 0 6.594-6.595l-19.023-84.989z"/><path fill="none" stroke="#000" stroke-miterlimit="10" d="M48.953 128.855v80.613M157.682 129.169v80.612"/><path d="M95.674 207.175c-6.95 0-13.658-2.675-18.885-7.525a2.515 2.515 0 1 1 3.422-3.686c4.294 3.985 9.786 6.184 15.463 6.184 9.449 0 18.048-6.022 21.395-14.989a2.512 2.512 0 0 1 3.235-1.475 2.513 2.513 0 0 1 1.477 3.233c-4.077 10.921-14.569 18.258-26.107 18.258z"/><circle cx="43.129" cy="174.062" r="2.449" fill="none" stroke="#000" stroke-miterlimit="10"/><circle cx="43.129" cy="186.997" r="2.449" fill="none" stroke="#000" stroke-miterlimit="10"/><circle cx="43.129" cy="198.799" r="2.449" fill="none" stroke="#000" stroke-miterlimit="10"/><circle cx="163.514" cy="177.076" r="2.449" fill="none" stroke="#000" stroke-miterlimit="10"/><path fill="#5BBFD6" stroke="#000" stroke-miterlimit="10" stroke-width="2" d="M97.832 154.232c0 17.606-14.272 31.876-31.876 31.876-17.606 0-31.876-14.27-31.876-31.876 0-17.597 14.27-31.873 31.876-31.873 17.604.001 31.876 14.277 31.876 31.873z"/><circle cx="65.955" cy="156.436" r="22.825" fill="#FFF" stroke="#000" stroke-miterlimit="10"/><path stroke="#000" stroke-miterlimit="10" d="M67.78 157.53c0 5.864-4.757 10.621-10.625 10.621S46.53 163.394 46.53 157.53c0-5.869 4.757-10.626 10.625-10.626s10.625 4.757 10.625 10.626z"/><circle cx="56.03" cy="154.435" r="3.276" fill="#FFF"/><path fill="#FFF" stroke="#000" stroke-miterlimit="10" d="M180.39 157.916c0 22.356-18.125 40.476-40.478 40.476-22.358 0-40.484-18.119-40.484-40.476 0-22.358 18.126-40.479 40.484-40.479 22.353 0 40.478 18.121 40.478 40.479z"/><path stroke="#000" stroke-miterlimit="10" d="M139.082 157.891c0 8.485-6.88 15.365-15.37 15.365s-15.367-6.88-15.367-15.365c0-8.489 6.877-15.369 15.367-15.369s15.37 6.879 15.37 15.369z"/><path fill="#FFF" d="M125.582 153.413c0 2.614-2.121 4.739-4.737 4.739s-4.74-2.125-4.74-4.739 2.123-4.737 4.74-4.737 4.737 2.123 4.737 4.737z"/><circle cx="163.514" cy="190.016" r="2.449" fill="none" stroke="#000" stroke-miterlimit="10"/><path fill="#5BBFD6" stroke="#000" stroke-miterlimit="10" stroke-width="2" d="M174.366 214.658l3.757-7.878 31.496 15.03-3.755 7.87z"/><path fill="#5BBFD6" stroke="#000" stroke-miterlimit="10" stroke-width="2" d="M234.398 225.566c-1.464 10.476-11.143 17.777-21.618 16.313-10.475-1.459-17.779-11.141-16.313-21.62 1.464-10.475 11.146-17.777 21.62-16.313 10.475 1.469 17.777 11.146 16.311 21.62z"/><path fill="none" stroke="#000" stroke-miterlimit="10" d="M204.418 217.809c0 7.989 6.461 14.446 14.444 14.446"/><path fill="#5BBFD6" d="M117.902 136.444c4.479-4.915 10.949-6.317 14.458-3.127 3.505 3.191 2.713 9.772-1.77 14.694-4.482 4.925-10.962 6.333-14.468 3.139-3.507-3.194-2.711-9.775 1.769-14.695h-.002c-13.66 15.005-12.568 38.247 2.432 51.903 15.008 13.663 38.245 12.57 51.906-2.435 13.662-15.008 12.576-38.246-2.433-51.907-14.995-13.653-38.228-12.57-51.892 2.428z" opacity=".22"/><path d="M165.83 191.51l13.143-14.434 8.921 8.123-13.142 14.435z"/><path fill="#6D6E71" stroke="#000" stroke-miterlimit="10" stroke-width="2" d="M140.391 206.999a48.774 48.774 0 0 1-32.906-12.742c-19.93-18.143-21.381-49.125-3.232-69.062 9.243-10.155 22.427-15.979 36.169-15.979a48.757 48.757 0 0 1 32.894 12.735c9.659 8.792 15.313 20.819 15.928 33.866.609 13.044-3.898 25.548-12.69 35.203a49.01 49.01 0 0 1-36.163 15.979zm.03-84.595a35.803 35.803 0 0 0-26.419 11.668c-13.25 14.561-12.19 37.183 2.361 50.434a35.634 35.634 0 0 0 24.028 9.305 35.78 35.78 0 0 0 26.407-11.669c6.422-7.053 9.715-16.183 9.269-25.709-.446-9.528-4.576-18.308-11.63-24.729a35.602 35.602 0 0 0-24.016-9.3z"/><path fill="#D1D3D4" d="M199.655 200l-8.98 9.863-14.155-12.888 8.98-9.862z"/><path d="M185.52 187.817l13.418 12.214-8.307 9.127-13.418-12.218 8.307-9.123m-.067-1.412l-.673.739-8.307 9.123-.674.739.74.673 13.418 12.218.739.674.673-.74 8.307-9.127.673-.739-.739-.673-13.418-12.214-.739-.673z"/><g fill="none" stroke="#A7A9AC" stroke-miterlimit="10"><path d="M177.677 196.43l12.173 11.084M179.563 194.36l12.171 11.085M181.448 192.291l12.17 11.082M183.33 190.222l12.176 11.08M185.217 188.15l12.171 11.08"/></g><path fill="#ED1C24" d="M248.826 245.443l-8.32 9.137-50.396-45.891 8.32-9.137z"/><path d="M198.504 200.977l48.917 44.542-6.969 7.656-48.922-44.54 6.974-7.658m-.133-2.826l-9.666 10.616L240.585 256l9.661-10.614-51.875-47.235z"/><path fill="none" stroke="#D1D3D4" stroke-miterlimit="10" d="M140.417 200.151c-23.219 0-42.046-18.825-42.046-42.042"/><path fill="#5BBFD6" stroke="#000" stroke-miterlimit="10" stroke-width="2" d="M211.596 201.909h8.724v36.346h-8.724zM229.994 199.89l-8.378 2.019 12.121 34.914 8.378-2.02zM211.596 202.328l-8.219-2.438-14.625 34.241 8.22 2.434z"/><path fill="#754C29" d="M102.11 103.458h19.081v19.084H102.11z"/><path fill="#3C2415" d="M121.19 103.458h19.085v19.084H121.19z"/><path fill="#754C29" d="M140.275 103.458h19.087v19.084h-19.087z"/><path fill="#3C2415" d="M159.36 103.464h5.417v19.077h-5.417z"/><path fill="#754C29" d="M39.433 103.464h5.419v19.077h-5.419z"/><path fill="#3C2415" d="M44.856 103.458h19.083v19.084H44.856z"/><path fill="#754C29" d="M63.94 103.458h19.083v19.084H63.94z"/><path fill="#3C2415" d="M83.023 103.458h19.087v19.084H83.023z"/><path fill="#A97C50" d="M88.138 15.073V12.43C88.138 6.128 93.266 1 99.568 1h5.076c6.305 0 11.435 5.128 11.435 11.431v2.643H88.138z"/><path d="M104.645 2c5.754 0 10.435 4.679 10.435 10.431v1.643H89.138v-1.643C89.138 6.679 93.817 2 99.568 2h5.077m0-2h-5.076c-6.865 0-12.431 5.566-12.431 12.431v3.643h29.942v-3.643C117.08 5.566 111.514 0 104.645 0z"/><path fill="#754C29" stroke="#000" stroke-miterlimit="10" stroke-width="2" d="M13.169 126.283V80.757c0-40.163 32.559-72.72 72.722-72.72h16.219v105.07l-88.941 13.176z"/><path d="M38.916 126.292h-3.369V80.766c0-1.57.048-3.208.145-5.011a84.837 84.837 0 0 1 1.338-10.778 82.071 82.071 0 0 1 4.047-14.141 84.764 84.764 0 0 1 2.311-5.354 69.096 69.096 0 0 1 2.243-4.355c3.128-5.614 6.88-10.716 11.148-15.167a72.262 72.262 0 0 1 3.833-3.708 67.626 67.626 0 0 1 4.396-3.583 62.116 62.116 0 0 1 15.213-8.424 58.268 58.268 0 0 1 18.876-3.859h.133c.05 0 .09-.002.129-.004l.876-.015c.262-.018.638-.019.992-.019v3.371c-.288.002-.605-.001-.899.015l-.666.003a5.154 5.154 0 0 1-.502.019 54.882 54.882 0 0 0-17.734 3.636 58.782 58.782 0 0 0-14.399 7.977 64.665 64.665 0 0 0-4.167 3.396 67.843 67.843 0 0 0-3.647 3.527c-4.072 4.244-7.648 9.115-10.641 14.477a69.067 69.067 0 0 0-2.136 4.148 80.369 80.369 0 0 0-2.216 5.139 78.514 78.514 0 0 0-3.88 13.554 80.458 80.458 0 0 0-1.282 10.339 87.595 87.595 0 0 0-.143 4.817v45.526z"/><path fill="#754C29" stroke="#000" stroke-miterlimit="10" stroke-width="2" d="M191.047 126.283V80.757c0-40.163-32.557-72.72-72.718-72.72H102.11v105.07l88.937 13.176z"/><path d="M168.663 126.292h-3.366V80.766c0-1.507-.047-3.084-.144-4.827a79.921 79.921 0 0 0-1.303-10.324 76.347 76.347 0 0 0-3.864-13.565 77.547 77.547 0 0 0-2.213-5.128 65.984 65.984 0 0 0-2.136-4.151c-2.992-5.364-6.57-10.236-10.638-14.479a67.883 67.883 0 0 0-3.646-3.52 63.749 63.749 0 0 0-4.166-3.402c-4.495-3.368-9.337-6.049-14.397-7.977a54.97 54.97 0 0 0-17.801-3.641 4.11 4.11 0 0 1-.442-.017h-.573c-.386-.02-.7-.02-.987-.019V6.347c.352 0 .721.001 1.075.021l.681-.002.107.015c.064.008.125.002.202.002a58.378 58.378 0 0 1 18.943 3.864c5.345 2.037 10.467 4.872 15.21 8.424a68.397 68.397 0 0 1 4.392 3.586 71.39 71.39 0 0 1 3.838 3.704c4.266 4.45 8.018 9.552 11.146 15.169a67.461 67.461 0 0 1 2.24 4.357 82.977 82.977 0 0 1 2.308 5.343 80.083 80.083 0 0 1 4.033 14.157 83.08 83.08 0 0 1 1.354 10.758 88.53 88.53 0 0 1 .146 5.021v45.526z"/><path fill="#754C29" d="M102.11 65.289h19.081v19.085H102.11z"/><path fill="#A97C50" d="M102.11 84.374h19.081v19.084H102.11z"/><path fill="#3C2415" d="M121.19 65.289h19.085v19.085H121.19z"/><path fill="#754C29" d="M121.19 84.374h19.085v19.084H121.19zM140.275 65.289h19.087v19.085h-19.087z"/><path fill="#A97C50" d="M140.275 84.374h19.087v19.084h-19.087z"/><path fill="#3C2415" d="M164.777 80.765v3.606h-5.417V65.295h3.945a81.615 81.615 0 0 1 1.33 10.551 89.23 89.23 0 0 1 .142 4.919z"/><path fill="#754C29" d="M159.36 84.371h5.417v19.093h-5.417zM44.852 65.295V84.37h-5.419v-3.606c0-1.652.051-3.284.143-4.918a81.78 81.78 0 0 1 1.31-10.551h3.966z"/><path fill="#A97C50" d="M39.433 84.371h5.419v19.093h-5.419z"/><path fill="#3C2415" d="M44.856 65.289h19.083v19.085H44.856z"/><path fill="#754C29" d="M44.856 84.374h19.083v19.084H44.856zM63.94 65.289h19.083v19.085H63.94z"/><path fill="#A97C50" d="M63.94 84.374h19.083v19.084H63.94z"/><path fill="#3C2415" d="M83.023 65.289h19.087v19.085H83.023z"/><path fill="#754C29" d="M83.023 84.374h19.087v19.084H83.023z"/><path fill="#A97C50" d="M121.188 11.82v15.307h-19.074V8.033h1.31c-.322 0-.661 0-.987.018.146.02.271.02.412.02a56.633 56.633 0 0 1 18.339 3.749z"/><path fill="#754C29" d="M102.11 27.122h19.081v19.083H102.11z"/><path fill="#A97C50" d="M102.11 46.204h19.081v19.085H102.11z"/><path fill="#754C29" d="M140.283 23.52v3.607h-19.095V11.82c5.278 2.01 10.23 4.773 14.805 8.201a65.016 65.016 0 0 1 4.29 3.499z"/><path fill="#3C2415" d="M121.19 27.122h19.085v19.083H121.19z"/><path fill="#754C29" d="M121.19 46.204h19.085v19.085H121.19z"/><path fill="#A97C50" d="M144.017 27.127h-3.733V23.52a70.36 70.36 0 0 1 3.733 3.607z"/><path fill="#754C29" d="M157.096 46.202h-16.812V27.127h3.733c4.182 4.359 7.839 9.348 10.892 14.823a66.955 66.955 0 0 1 2.187 4.252z"/><path fill="#A97C50" d="M159.36 51.443v13.853h-19.077V46.202h16.812a79.83 79.83 0 0 1 2.265 5.241z"/><path fill="#754C29" d="M163.306 65.295h-3.945V51.443a78.668 78.668 0 0 1 3.945 13.852z"/><path fill="#A97C50" d="M44.852 51.443v13.853h-3.967a80.003 80.003 0 0 1 3.967-13.853z"/><path fill="#754C29" d="M63.944 23.502v3.625h-3.749a71.648 71.648 0 0 1 3.749-3.625z"/><path fill="#3C2415" d="M63.944 27.127v19.075H47.112a68.591 68.591 0 0 1 2.19-4.252c3.049-5.475 6.71-10.463 10.893-14.823h3.749z"/><path fill="#754C29" d="M63.944 46.202v19.093H44.852V51.443a79.793 79.793 0 0 1 2.26-5.241h16.832z"/><path fill="#A97C50" d="M83.021 11.82v15.307H63.944v-3.625a66.344 66.344 0 0 1 4.271-3.482c4.56-3.427 9.529-6.19 14.806-8.2z"/><path fill="#754C29" d="M63.94 27.122h19.083v19.083H63.94z"/><path fill="#A97C50" d="M63.94 46.204h19.083v19.085H63.94z"/><path fill="#754C29" d="M102.114 8.033v19.094H83.021V11.82a56.656 56.656 0 0 1 18.34-3.749c.144 0 .271 0 .415-.02-.326-.018-.666-.018-.987-.018h1.325z"/><path fill="#3C2415" d="M83.023 27.122h19.087v19.083H83.023z"/><path fill="#754C29" d="M83.023 46.204h19.087v19.085H83.023z"/><path fill="#3C2415" stroke="#000" stroke-miterlimit="10" stroke-width="2" d="M152.079 101.324l-17.872-3.927a149.665 149.665 0 0 0-64.194 0l-17.873 3.927a45.12 45.12 0 0 0-30.591 23.718l46.108 8.305a194.157 194.157 0 0 0 68.903 0l46.107-8.305a45.106 45.106 0 0 0-30.588-23.718z"/></svg>